PathFileType	4	(X/Y/Z)	C:\Users\WrightLab\Desktop\Jo\P2_Trial27.trc
DataRate	CameraRate	NumFrames	NumMarkers	Units	OrigDataRate	OrigDataStartFrame	OrigNumFrames
100.00	100.00	       16	19	mm	100.00	126	       501
Frame#	Time	Headset_Front			Headset_Back			Headset_Left			Headset_Right			Left_Shoulder			Right_Shoulder			Sternum			C7			Left Elbow			Right Elbow			Left Wrist			Right Wrist			Left ASIS			Right ASIS			S2			Left Knee			Right Knee			Left Ankle			Right Ankle			
		X1	Y1	Z1	X2	Y2	Z2	X3	Y3	Z3	X4	Y4	Z4	X5	Y5	Z5	X6	Y6	Z6	X7	Y7	Z7	X8	Y8	Z8	X9	Y9	Z9	X10	Y10	Z10	X11	Y11	Z11	X12	Y12	Z12	X13	Y13	Z13	X14	Y14	Z14	X15	Y15	Z15	X16	Y16	Z16	X17	Y17	Z17	X18	Y18	Z18	X19	Y19	Z19	

126	1.250	-504.29636	923.35785	-1400.89502	-820.93115	819.14417	-1253.67200							-633.63989	1504.12939	-1042.27820	-700.99463	1396.45435	-1202.47888				-538.87372	1280.83398	-1144.03748	-265.52539	1062.14539	-1187.97656	-785.70892	1072.78601	-1287.37988	-253.60356	818.42609	-1172.54333				-486.58478	990.11829	-1130.62708	-616.13031	978.95068	-1151.68372				-323.33841	411.72995	-1210.79224	-726.10919	515.75360	-1252.00000	-709.22864	75.36415	-1212.06970	-192.26566	97.53142	-1314.65833	
127	1.260	-508.31381	925.04901	-1397.47913	-826.48682	817.45453	-1255.63733										-705.72845	1397.71472	-1197.51526				-542.52618	1281.56958	-1139.11499	-271.22455	1063.52258	-1185.10413	-791.19940	1073.05969	-1279.44080	-259.38998	819.36072	-1171.29272				-490.85388	991.98236	-1124.66833	-620.54730	979.83875	-1149.25647				-338.48242	411.92645	-1201.78064	-730.72809	515.69373	-1251.75269	-709.07501	75.56643	-1211.41956	-199.15244	105.17110	-1308.79126	
128	1.270	-511.96985	925.73505	-1392.92725	-831.52051	817.92865	-1248.22864							-642.42432	1504.53979	-1033.01025	-709.65027	1398.72546	-1192.50916				-547.32697	1281.98010	-1134.74475	-277.47992	1064.21240	-1181.97925	-796.78882	1074.05078	-1273.15515	-269.53177	820.96027	-1165.59485				-494.83838	992.43884	-1120.63184	-622.65741	981.34589	-1138.57458				-352.11115	413.33524	-1192.99817	-735.51172	515.90692	-1250.74438	-708.89136	75.89044	-1210.66943	-208.34428	112.94047	-1301.73157	
129	1.280	-515.25812	926.65393	-1389.09497	-836.23364	818.51978	-1244.08972										-714.17920	1399.70776	-1187.52563				-551.80121	1283.87439	-1131.06372	-282.63730	1064.60352	-1178.95813	-801.70081	1075.54382	-1267.79517	-275.06671	822.25195	-1163.03650				-497.78262	993.27838	-1117.14575	-627.95642	981.94745	-1137.91455				-364.41479	415.08908	-1185.86548	-740.23883	516.32202	-1250.06860	-708.34271	76.27068	-1211.62366	-217.11226	120.08221	-1295.00146	
130	1.290	-518.36719	927.00214	-1382.92126	-840.56525	820.72583	-1231.42578										-718.57635	1400.58862	-1182.10571				-554.83319	1284.59546	-1126.35901	-288.32758	1066.03479	-1176.64648	-806.60504	1076.77209	-1261.89624	-280.44382	823.54669	-1160.04407				-500.82700	994.13037	-1112.75525	-632.09796	980.02063	-1136.55615				-374.48331	418.67151	-1178.86292	-744.08636	516.54553	-1248.97510	-707.62585	75.49440	-1213.70386	-227.19536	128.26726	-1285.76318	
131	1.300	-521.59021	928.18420	-1379.27991	-845.71191	820.86108	-1224.52991							-654.37634	1506.95007	-1018.63513	-723.05438	1401.76904	-1177.27966				-559.05646	1285.48914	-1121.62939	-292.62042	1066.11426	-1174.23120	-811.53772	1078.42480	-1257.18250	-283.36096	824.67926	-1160.92395				-505.82968	994.82245	-1107.27649	-636.19916	982.05914	-1126.67554				-380.56430	423.94019	-1169.54468	-747.84833	516.71368	-1247.97900	-707.51038	75.71172	-1213.23584	-237.38503	136.16199	-1278.79321	
132	1.310	-524.78571	928.25214	-1374.42041	-849.73914	825.73505	-1209.05859										-727.12860	1402.17883	-1171.87976				-562.34167	1286.87195	-1117.75818	-298.42816	1066.84338	-1172.28210	-816.00098	1079.04041	-1250.17249	-287.58365	826.58929	-1158.59570				-510.26151	995.60468	-1103.40271	-639.94452	982.43170	-1124.54480				-389.12930	428.13187	-1159.76782	-750.38635	516.36621	-1246.36804	-707.53210	75.72621	-1213.34229	-249.06055	142.91676	-1267.00769	
133	1.320	-527.38074	928.73175	-1369.05273													-730.79303	1402.73010	-1166.23035				-566.55469	1287.47266	-1113.14465	-302.00522	1067.70374	-1170.21399	-821.03040	1079.45886	-1243.15808	-291.84540	827.18182	-1154.05859				-513.30011	996.45654	-1099.62122	-642.79462	983.76062	-1116.20972				-397.13834	431.68588	-1148.18701	-753.49835	516.40753	-1244.49707	-707.58331	76.30930	-1213.95264	-260.08594	149.46263	-1258.16284	
134	1.330	-529.91119	929.21014	-1364.49377	-665.49805	1508.94714	-1003.52600										-734.60229	1403.70764	-1160.26233				-569.59167	1287.59619	-1107.62610	-307.31924	1067.82556	-1167.91541	-825.37598	1079.27307	-1234.82483	-293.11057	828.38800	-1155.17224	-856.23541	823.27576	-1204.01538	-517.69916	997.07104	-1095.59973	-646.41998	983.69238	-1109.85059				-406.85846	435.24496	-1132.40759	-755.31500	516.04913	-1244.16760	-707.75708	76.03091	-1214.67310	-271.24954	153.91216	-1248.28943	
135	1.340	-532.38080	929.83746	-1359.08276	-669.01636	1509.70862	-998.48566										-738.43280	1404.25537	-1155.31055				-573.29523	1287.92004	-1103.92896	-311.10959	1068.47485	-1164.92761	-829.18958	1079.81311	-1228.12598	-297.37811	829.35706	-1150.02734	-860.70825	828.58356	-1187.39160	-521.34100	997.42627	-1091.80005	-650.52460	983.74408	-1105.77832				-415.07581	438.27170	-1115.64844	-757.86761	515.44537	-1242.46509	-708.53369	76.08630	-1212.45471	-283.26843	158.71924	-1237.34314	
136	1.350	-535.11005	930.31085	-1353.98254													-742.54919	1404.58948	-1149.19385				-576.66223	1288.50977	-1099.35608	-315.60007	1069.66455	-1160.10901	-833.14398	1081.12134	-1223.64355	-298.25125	830.40808	-1150.32288	-863.97113	824.46893	-1190.35315	-525.15930	998.58978	-1083.49097	-653.82379	984.48132	-1101.89270				-424.07928	441.87546	-1097.83667	-759.69617	515.34595	-1241.29211	-708.79596	75.61434	-1213.52368	-295.29581	162.10667	-1226.05627	
137	1.360	-537.91846	930.74261	-1349.63147													-746.31647	1405.00867	-1143.13379				-581.36438	1289.70813	-1093.77075	-317.24219	1069.94373	-1159.99402	-836.62744	1081.91736	-1218.13879	-299.74307	830.37537	-1149.63831	-868.61145	829.29376	-1169.91943	-527.65570	999.01294	-1078.09705	-657.55402	984.35632	-1095.62781				-428.34903	445.22565	-1085.03479	-762.05182	512.08405	-1249.32239	-709.82947	76.37540	-1210.40381	-306.67545	166.16794	-1216.34229	
138	1.370	-540.53290	931.02667	-1343.97656													-749.85437	1405.26147	-1137.23511				-582.93787	1288.32117	-1088.23938	-321.02353	1070.97424	-1156.00977	-840.25262	1081.32349	-1209.60010	-302.87546	830.06250	-1145.19055	-871.93445	830.47589	-1163.37549	-531.61041	999.98749	-1074.10327	-660.80829	984.33942	-1090.32495				-432.69708	447.39819	-1070.77905	-761.41028	514.48004	-1239.27173	-710.59387	76.51654	-1209.67957	-319.01468	167.72096	-1202.32446	
139	1.380	-543.22388	931.46924	-1339.13538													-753.07520	1403.53040	-1131.85388				-586.82617	1289.78357	-1083.52271	-322.58151	1071.40991	-1153.31018	-844.14886	1080.54895	-1201.04224	-303.87189	829.65643	-1142.83008	-874.32025	824.91150	-1168.99902	-535.39117	1000.19189	-1070.25220	-663.10010	984.01642	-1084.65295				-436.83307	448.48563	-1057.97266	-762.67603	513.86694	-1237.68726	-711.12531	75.64687	-1211.86987	-331.13245	169.56296	-1191.21082	
140	1.390	-545.99487	931.75909	-1333.47668	-614.74432	1385.26025	-1114.67102										-756.54657	1403.50269	-1126.09814				-590.34088	1290.07336	-1079.00684	-323.81247	1071.69043	-1150.63647	-847.87329	1081.24475	-1195.98486	-304.58591	829.63251	-1139.99243	-877.35901	825.34778	-1162.40088	-537.04541	1001.23499	-1064.98743	-665.52460	983.99249	-1080.22070				-441.04279	449.24783	-1043.16333	-764.40192	512.45074	-1234.47400	-712.80377	73.56454	-1215.03516	-341.84308	170.21414	-1180.19519	
141	1.400	-549.04028	931.76611	-1327.93530	-618.29358	1386.41553	-1112.79382										-760.88782	1404.16235	-1119.89124				-592.42163	1289.55493	-1073.33875	-325.05780	1072.02747	-1146.73694	-851.12561	1081.70032	-1190.20569	-304.91962	830.39563	-1139.27881	-881.03784	826.65277	-1150.37964	-539.45392	1001.77307	-1058.10938	-669.05981	984.44769	-1074.41736				-444.37115	449.77899	-1029.67322	-764.70221	512.40552	-1234.33240	-715.04364	73.63346	-1214.95129	-353.63245	168.15620	-1166.41382	
